<svg width="33.000000" height="33.000000" viewBox="0 0 33 33" fill="none" xmlns="http://www.w3.org/2000/svg" xmlns:xlink="http://www.w3.org/1999/xlink">
	<desc>
			Created with Pixso.
	</desc>
	<defs>
		<clipPath id="clip9_36">
			<rect id="Ошибка" width="15.000000" height="15.000000" transform="translate(9.000000 9.000000)" fill="white" fill-opacity="0"/>
		</clipPath>
		<clipPath id="clip9_33">
			<rect id="Проверять" width="33.000000" height="32.999996" fill="white" fill-opacity="0"/>
		</clipPath>
	</defs>
	<g clip-path="url(#clip9_33)">
		<path id="path" d="M16.5 30.25C20.29 30.25 23.73 28.71 26.22 26.22C28.71 23.73 30.25 20.29 30.25 16.5C30.25 12.7 28.71 9.26 26.22 6.77C23.73 4.28 20.29 2.75 16.5 2.75C12.7 2.75 9.26 4.28 6.77 6.77C4.28 9.26 2.75 12.7 2.75 16.5C2.75 20.29 4.28 23.73 6.77 26.22C9.26 28.71 12.7 30.25 16.5 30.25Z" fill="#000000" fill-opacity="0" fill-rule="nonzero"/>
		<path id="path" d="M26.22 26.22C28.71 23.73 30.25 20.29 30.25 16.5C30.25 12.7 28.71 9.26 26.22 6.77C23.73 4.28 20.29 2.75 16.5 2.75C12.7 2.75 9.26 4.28 6.77 6.77C4.28 9.26 2.75 12.7 2.75 16.5C2.75 20.29 4.28 23.73 6.77 26.22C9.26 28.71 12.7 30.25 16.5 30.25C20.29 30.25 23.73 28.71 26.22 26.22Z" stroke="#FFFFFF" stroke-opacity="1.000000" stroke-width="2.500000" stroke-linejoin="round"/>
		<g clip-path="url(#clip9_36)">
			<path id="path" d="M10.87 12.43L12.43 10.87L16.5 14.93L20.56 10.87L22.12 12.43L18.06 16.5L22.12 20.56L20.56 22.12L16.5 18.06L12.43 22.12L10.87 20.56L14.93 16.5L10.87 12.43Z" fill="#000000" fill-opacity="0" fill-rule="evenodd"/>
			<path id="path" d="M12.43 10.87L16.5 14.93L20.56 10.87L22.12 12.43L18.06 16.5L22.12 20.56L20.56 22.12L16.5 18.06L12.43 22.12L10.87 20.56L14.93 16.5L10.87 12.43L12.43 10.87Z" stroke="#FFFFFF" stroke-opacity="1.000000" stroke-width="1.000000" stroke-linejoin="round"/>
		</g>
	</g>
</svg>
